<svg width="320" height="110" viewBox="0 0 320 110" fill="none" xmlns="http://www.w3.org/2000/svg">
<path d="M8.31785 67L5.31085 45.3H8.99985L11.3558 64.427H11.8828L14.9208 45.3H21.3998L24.4378 64.427H24.9648L27.2898 45.3H31.0098L27.9718 67H21.4928L18.4238 47.501H17.8968L14.7968 67H8.31785ZM34.0975 67V45.3H42.8705C44.2345 45.3 45.4332 45.5687 46.4665 46.106C47.4998 46.6433 48.3162 47.408 48.9155 48.4C49.5148 49.3713 49.8145 50.5287 49.8145 51.872V52.306C49.8145 53.6287 49.5045 54.786 48.8845 55.778C48.2852 56.77 47.4585 57.5347 46.4045 58.072C45.3712 58.6093 44.1932 58.878 42.8705 58.878H37.8485V67H34.0975ZM37.8485 55.499H42.4985C43.5732 55.499 44.4308 55.2097 45.0715 54.631C45.7328 54.0523 46.0635 53.2567 46.0635 52.244V51.934C46.0635 50.9213 45.7432 50.1257 45.1025 49.547C44.4618 48.9683 43.5938 48.679 42.4985 48.679H37.8485V55.499ZM68.2106 67.434C66.6812 67.434 65.3069 67.1033 64.0876 66.442C62.8889 65.76 61.9279 64.7783 61.2046 63.497C60.5019 62.195 60.1506 60.6037 60.1506 58.723V53.577C60.1506 50.7663 60.9359 48.617 62.5066 47.129C64.0772 45.6203 66.1852 44.866 68.8306 44.866C71.4759 44.866 73.5116 45.579 74.9376 47.005C76.3636 48.4103 77.0766 50.3117 77.0766 52.709V52.833H73.4186V52.585C73.4186 51.7583 73.2532 51.0143 72.9226 50.353C72.5919 49.6917 72.0856 49.175 71.4036 48.803C70.7216 48.4103 69.8639 48.214 68.8306 48.214C67.3012 48.214 66.0922 48.6893 65.2036 49.64C64.3356 50.57 63.9016 51.8617 63.9016 53.515V58.785C63.9016 60.4177 64.3356 61.7197 65.2036 62.691C66.0922 63.6623 67.3219 64.148 68.8926 64.148C70.4632 64.148 71.6102 63.7243 72.3336 62.877C73.0569 62.0297 73.4186 60.9447 73.4186 59.622V59.25H67.9316V56.088H77.0766V67H73.6666V64.861H73.1396C72.9742 65.233 72.7159 65.6257 72.3646 66.039C72.0132 66.4317 71.5069 66.7623 70.8456 67.031C70.2049 67.2997 69.3266 67.434 68.2106 67.434ZM87.1557 67.248C85.9777 67.248 84.934 66.9897 84.0247 66.473C83.1154 65.9357 82.4127 65.1917 81.9167 64.241C81.4207 63.2697 81.1727 62.1433 81.1727 60.862V51.686H84.7067V60.583C84.7067 61.823 85.0064 62.7427 85.6057 63.342C86.2257 63.9413 87.0937 64.241 88.2097 64.241C89.4704 64.241 90.4624 63.8277 91.1857 63.001C91.9297 62.1743 92.3017 60.986 92.3017 59.436V51.686H95.8357V67H92.3637V64.861H91.8367C91.568 65.419 91.072 65.9563 90.3487 66.473C89.646 66.9897 88.5817 67.248 87.1557 67.248ZM100.369 67V45.3H103.934V67H100.369ZM108.452 73.2V51.686H111.955V53.701H112.482C112.833 53.0603 113.391 52.492 114.156 51.996C114.941 51.5 116.057 51.252 117.504 51.252C118.744 51.252 119.891 51.562 120.945 52.182C122.02 52.7813 122.877 53.67 123.518 54.848C124.159 56.026 124.479 57.4417 124.479 59.095V59.591C124.479 61.2443 124.159 62.66 123.518 63.838C122.877 65.016 122.03 65.915 120.976 66.535C119.922 67.1343 118.765 67.434 117.504 67.434C116.533 67.434 115.716 67.3203 115.055 67.093C114.414 66.8657 113.887 66.566 113.474 66.194C113.081 65.822 112.771 65.45 112.544 65.078H112.017V73.2H108.452ZM116.45 64.334C117.752 64.334 118.816 63.9207 119.643 63.094C120.49 62.2467 120.914 61.048 120.914 59.498V59.188C120.914 57.6173 120.49 56.4187 119.643 55.592C118.796 54.7653 117.731 54.352 116.45 54.352C115.169 54.352 114.094 54.7653 113.226 55.592C112.379 56.4187 111.955 57.6173 111.955 59.188V59.498C111.955 61.048 112.379 62.2467 113.226 63.094C114.094 63.9207 115.169 64.334 116.45 64.334ZM144.181 67.434C141.536 67.434 139.428 66.69 137.857 65.202C136.286 63.6933 135.501 61.5337 135.501 58.723V53.577C135.501 50.7663 136.286 48.617 137.857 47.129C139.428 45.6203 141.536 44.866 144.181 44.866C146.826 44.866 148.862 45.5893 150.288 47.036C151.735 48.4827 152.458 50.4667 152.458 52.988V53.174H148.8V52.895C148.8 51.531 148.418 50.415 147.653 49.547C146.909 48.6583 145.752 48.214 144.181 48.214C142.652 48.214 141.443 48.6893 140.554 49.64C139.686 50.57 139.252 51.8617 139.252 53.515V58.785C139.252 60.4177 139.686 61.7093 140.554 62.66C141.443 63.6107 142.652 64.086 144.181 64.086C145.752 64.086 146.909 63.652 147.653 62.784C148.418 61.8953 148.8 60.769 148.8 59.405V58.878H152.458V59.312C152.458 61.8333 151.735 63.8173 150.288 65.264C148.862 66.7107 146.826 67.434 144.181 67.434ZM156.072 67V45.3H159.637V53.701H160.164C160.329 53.3497 160.598 52.9983 160.97 52.647C161.342 52.2957 161.828 52.0063 162.427 51.779C163.047 51.5517 163.822 51.438 164.752 51.438C165.93 51.438 166.974 51.7067 167.883 52.244C168.792 52.7607 169.495 53.4943 169.991 54.445C170.508 55.3957 170.766 56.522 170.766 57.824V67H167.201V58.103C167.201 56.863 166.891 55.9433 166.271 55.344C165.672 54.724 164.814 54.414 163.698 54.414C162.437 54.414 161.445 54.8377 160.722 55.685C159.999 56.5117 159.637 57.7 159.637 59.25V67H156.072ZM175.144 67V51.686H178.709V67H175.144ZM176.911 49.733C176.271 49.733 175.713 49.5263 175.237 49.113C174.783 48.679 174.555 48.1107 174.555 47.408C174.555 46.7053 174.783 46.1473 175.237 45.734C175.713 45.3 176.271 45.083 176.911 45.083C177.593 45.083 178.151 45.3 178.585 45.734C179.04 46.1473 179.267 46.7053 179.267 47.408C179.267 48.1107 179.04 48.679 178.585 49.113C178.151 49.5263 177.593 49.733 176.911 49.733ZM183.227 67V45.3H186.792V67H183.227ZM197.572 67.434C196.332 67.434 195.175 67.1343 194.1 66.535C193.026 65.915 192.168 65.016 191.527 63.838C190.887 62.66 190.566 61.2443 190.566 59.591V59.095C190.566 57.4417 190.887 56.026 191.527 54.848C192.168 53.67 193.015 52.7813 194.069 52.182C195.144 51.562 196.312 51.252 197.572 51.252C198.523 51.252 199.329 51.3657 199.99 51.593C200.652 51.8203 201.179 52.1097 201.571 52.461C201.985 52.8123 202.305 53.1947 202.532 53.608H203.059V45.3H206.593V67H203.121V64.985H202.594C202.222 65.605 201.654 66.1733 200.889 66.69C200.125 67.186 199.019 67.434 197.572 67.434ZM198.626 64.334C199.908 64.334 200.972 63.9207 201.819 63.094C202.667 62.2467 203.09 61.048 203.09 59.498V59.188C203.09 57.6173 202.667 56.4187 201.819 55.592C200.993 54.7653 199.928 54.352 198.626 54.352C197.345 54.352 196.27 54.7653 195.402 55.592C194.555 56.4187 194.131 57.6173 194.131 59.188V59.498C194.131 61.048 194.555 62.2467 195.402 63.094C196.27 63.9207 197.345 64.334 198.626 64.334ZM223.093 67V48.679H216.614V45.3H233.292V48.679H226.813V67H223.093ZM236.327 67V45.3H239.892V53.701H240.419C240.584 53.3497 240.853 52.9983 241.225 52.647C241.597 52.2957 242.083 52.0063 242.682 51.779C243.302 51.5517 244.077 51.438 245.007 51.438C246.185 51.438 247.229 51.7067 248.138 52.244C249.047 52.7607 249.75 53.4943 250.246 54.445C250.763 55.3957 251.021 56.522 251.021 57.824V67H247.456V58.103C247.456 56.863 247.146 55.9433 246.526 55.344C245.927 54.724 245.069 54.414 243.953 54.414C242.692 54.414 241.7 54.8377 240.977 55.685C240.254 56.5117 239.892 57.7 239.892 59.25V67H236.327ZM262.405 67.434C260.876 67.434 259.522 67.1137 258.344 66.473C257.187 65.8117 256.278 64.892 255.616 63.714C254.976 62.5153 254.655 61.1203 254.655 59.529V59.157C254.655 57.545 254.976 56.15 255.616 54.972C256.257 53.794 257.156 52.8847 258.313 52.244C259.471 51.5827 260.804 51.252 262.312 51.252C263.8 51.252 265.102 51.5827 266.218 52.244C267.334 52.8847 268.202 53.794 268.822 54.972C269.442 56.15 269.752 57.5243 269.752 59.095V60.366H258.251C258.293 61.5647 258.716 62.5257 259.522 63.249C260.328 63.9723 261.32 64.334 262.498 64.334C263.656 64.334 264.513 64.086 265.071 63.59C265.629 63.0733 266.053 62.4947 266.342 61.854L269.287 63.373C268.998 63.931 268.574 64.5303 268.016 65.171C267.479 65.791 266.756 66.3283 265.846 66.783C264.937 67.217 263.79 67.434 262.405 67.434ZM258.282 57.669H266.125C266.043 56.6563 265.65 55.8503 264.947 55.251C264.265 54.6517 263.377 54.352 262.281 54.352C261.145 54.352 260.235 54.6517 259.553 55.251C258.871 55.8503 258.448 56.6563 258.282 57.669ZM273.412 67V51.686H276.915V53.391H277.442C277.711 52.8743 278.155 52.4197 278.775 52.027C279.416 51.6137 280.263 51.407 281.317 51.407C282.433 51.407 283.332 51.6343 284.014 52.089C284.696 52.5437 285.213 53.1223 285.564 53.825H286.06C286.411 53.1223 286.918 52.5437 287.579 52.089C288.24 51.6343 289.181 51.407 290.4 51.407C291.351 51.407 292.208 51.6137 292.973 52.027C293.758 52.4403 294.378 53.05 294.833 53.856C295.308 54.662 295.546 55.6643 295.546 56.863V67H291.981V57.111C291.981 56.2223 291.743 55.5507 291.268 55.096C290.793 54.6207 290.131 54.383 289.284 54.383C288.354 54.383 287.61 54.693 287.052 55.313C286.515 55.9123 286.246 56.7803 286.246 57.917V67H282.712V57.111C282.712 56.2223 282.474 55.5507 281.999 55.096C281.524 54.6207 280.862 54.383 280.015 54.383C279.064 54.383 278.32 54.693 277.783 55.313C277.246 55.9123 276.977 56.7803 276.977 57.917V67H273.412ZM306.937 67.434C305.408 67.434 304.054 67.1137 302.876 66.473C301.719 65.8117 300.81 64.892 300.148 63.714C299.508 62.5153 299.187 61.1203 299.187 59.529V59.157C299.187 57.545 299.508 56.15 300.148 54.972C300.789 53.794 301.688 52.8847 302.845 52.244C304.003 51.5827 305.336 51.252 306.844 51.252C308.332 51.252 309.634 51.5827 310.75 52.244C311.866 52.8847 312.734 53.794 313.354 54.972C313.974 56.15 314.284 57.5243 314.284 59.095V60.366H302.783C302.825 61.5647 303.248 62.5257 304.054 63.249C304.86 63.9723 305.852 64.334 307.03 64.334C308.188 64.334 309.045 64.086 309.603 63.59C310.161 63.0733 310.585 62.4947 310.874 61.854L313.819 63.373C313.53 63.931 313.106 64.5303 312.548 65.171C312.011 65.791 311.288 66.3283 310.378 66.783C309.469 67.217 308.322 67.434 306.937 67.434ZM302.814 57.669H310.657C310.575 56.6563 310.182 55.8503 309.479 55.251C308.797 54.6517 307.909 54.352 306.813 54.352C305.677 54.352 304.767 54.6517 304.085 55.251C303.403 55.8503 302.98 56.6563 302.814 57.669Z" fill="white"/>
</svg>
